<?xml version="1.0" standalone="no"?>
<!DOCTYPE svg PUBLIC "-//W3C//DTD SVG 20010904//EN"
 "http://www.w3.org/TR/2001/REC-SVG-20010904/DTD/svg10.dtd">
<svg version="1.0" xmlns="http://www.w3.org/2000/svg"
 width="512.000000pt" height="512.000000pt" viewBox="0 0 512.000000 512.000000"
 preserveAspectRatio="xMidYMid meet">
<metadata>
Created by potrace 1.14, written by Peter Selinger 2001-2017
</metadata>
<g transform="translate(0.000000,512.000000) scale(0.100000,-0.100000)"
fill="#000000" stroke="none">
<path d="M1448 4478 l-1108 -641 0 -1277 0 -1277 1110 -641 1111 -641 802 463
c441 254 940 543 1110 640 l307 178 0 1278 0 1277 -1106 639 c-609 352 -1109
640 -1113 641 -3 0 -504 -287 -1113 -639z m1544 -147 c126 -54 167 -243 76
-347 -47 -53 -95 -73 -192 -80 l-86 -7 0 -118 0 -117 43 -7 c185 -31 424 -136
586 -257 l65 -49 85 90 c96 101 137 124 221 124 134 1 222 -89 221 -225 0 -78
-25 -123 -132 -233 l-89 -92 68 -135 c108 -214 153 -408 152 -653 0 -394 -147
-754 -418 -1023 -291 -289 -621 -426 -1032 -426 -411 0 -741 137 -1032 426
-389 387 -518 959 -338 1499 70 211 174 375 349 550 203 203 433 330 714 395
l77 18 0 116 0 117 -86 7 c-53 4 -99 13 -123 26 -159 81 -157 329 3 400 37 17
77 19 433 19 363 1 395 0 435 -18z"/>
<path d="M2010 2906 c-25 -7 -59 -20 -76 -29 -85 -44 -184 -187 -184 -267 0
-109 172 -169 240 -83 11 14 20 29 20 33 0 5 14 24 32 44 34 39 78 48 111 24
27 -21 45 -79 36 -113 -5 -17 -67 -97 -140 -180 -265 -300 -287 -342 -296
-571 -6 -148 3 -179 60 -214 30 -18 52 -20 297 -20 290 0 299 2 337 59 41 60
26 144 -33 190 -25 20 -39 21 -207 21 l-179 0 6 33 c13 68 61 138 209 303 166
187 199 237 217 331 36 181 -49 355 -206 425 -60 26 -178 33 -244 14z"/>
<path d="M2905 2906 c-103 -33 -179 -97 -221 -189 l-29 -62 0 -430 0 -430 28
-61 c35 -76 94 -135 172 -171 53 -25 72 -28 155 -28 89 0 100 2 165 35 89 44
145 111 175 206 19 62 20 91 20 447 0 427 -3 450 -68 546 -83 123 -255 182
-397 137z m159 -287 l26 -20 0 -372 c0 -367 0 -371 -22 -394 -14 -15 -33 -23
-55 -23 -49 0 -71 15 -83 58 -13 47 -14 665 0 711 5 18 17 39 27 47 27 20 77
17 107 -7z"/>
</g>
</svg>
